<?xml version="1.0" encoding="UTF-8" standalone="no"?>
<!DOCTYPE svg PUBLIC "-//W3C//DTD SVG 1.1//EN"
 "http://www.w3.org/Graphics/SVG/1.1/DTD/svg11.dtd">
<!-- Generated by graphviz version 2.50.0 (0)
 -->
<!-- Pages: 1 -->
<svg width="328pt" height="116pt"
 viewBox="0.00 0.00 327.54 116.00" xmlns="http://www.w3.org/2000/svg" xmlns:xlink="http://www.w3.org/1999/xlink">
<g id="graph0" class="graph" transform="scale(1 1) rotate(0) translate(4 112)">
<polygon fill="white" stroke="transparent" points="-4,4 -4,-112 323.54,-112 323.54,4 -4,4"/>
<!-- quarter of birth -->
<g id="node1" class="node">
<title>quarter of birth</title>
<ellipse fill="none" stroke="black" cx="65.64" cy="-18" rx="65.79" ry="18"/>
<text text-anchor="middle" x="65.64" y="-14.3" font-family="Times,serif" font-size="14.00">quarter of birth</text>
</g>
<!-- education -->
<g id="node2" class="node">
<title>education</title>
<ellipse fill="none" stroke="black" cx="195.64" cy="-18" rx="46.29" ry="18"/>
<text text-anchor="middle" x="195.64" y="-14.3" font-family="Times,serif" font-size="14.00">education</text>
</g>
<!-- quarter of birth&#45;&gt;education -->
<g id="edge1" class="edge">
<title>quarter of birth&#45;&gt;education</title>
<path fill="none" stroke="black" d="M131.41,-18C134.04,-18 136.68,-18 139.31,-18"/>
<polygon fill="black" stroke="black" points="139.47,-21.5 149.47,-18 139.47,-14.5 139.47,-21.5"/>
</g>
<!-- wage -->
<g id="node4" class="node">
<title>wage</title>
<ellipse fill="none" stroke="black" cx="289.64" cy="-18" rx="29.8" ry="18"/>
<text text-anchor="middle" x="289.64" y="-14.3" font-family="Times,serif" font-size="14.00">wage</text>
</g>
<!-- education&#45;&gt;wage -->
<g id="edge4" class="edge">
<title>education&#45;&gt;wage</title>
<path fill="none" stroke="black" d="M241.91,-18C244.37,-18 246.84,-18 249.3,-18"/>
<polygon fill="black" stroke="black" points="249.44,-21.5 259.44,-18 249.44,-14.5 249.44,-21.5"/>
</g>
<!-- ability -->
<g id="node3" class="node">
<title>ability</title>
<ellipse fill="none" stroke="black" cx="242.64" cy="-90" rx="33.6" ry="18"/>
<text text-anchor="middle" x="242.64" y="-86.3" font-family="Times,serif" font-size="14.00">ability</text>
</g>
<!-- ability&#45;&gt;education -->
<g id="edge3" class="edge">
<title>ability&#45;&gt;education</title>
<path fill="none" stroke="black" d="M231.74,-72.76C226.01,-64.23 218.86,-53.58 212.44,-44.02"/>
<polygon fill="black" stroke="black" points="215.29,-41.98 206.81,-35.63 209.48,-45.89 215.29,-41.98"/>
</g>
<!-- ability&#45;&gt;wage -->
<g id="edge2" class="edge">
<title>ability&#45;&gt;wage</title>
<path fill="none" stroke="black" d="M253.55,-72.76C259.36,-64.11 266.63,-53.27 273.12,-43.6"/>
<polygon fill="black" stroke="black" points="276.13,-45.4 278.8,-35.15 270.32,-41.5 276.13,-45.4"/>
</g>
</g>
</svg>
