<?xml version="1.0" encoding="UTF-8" standalone="no"?>
<!DOCTYPE svg PUBLIC "-//W3C//DTD SVG 1.1//EN"
 "http://www.w3.org/Graphics/SVG/1.1/DTD/svg11.dtd">
<!-- Generated by graphviz version 2.50.0 (0)
 -->
<!-- Pages: 1 -->
<svg width="353pt" height="116pt"
 viewBox="0.00 0.00 353.34 116.00" xmlns="http://www.w3.org/2000/svg" xmlns:xlink="http://www.w3.org/1999/xlink">
<g id="graph0" class="graph" transform="scale(1 1) rotate(0) translate(4 112)">
<polygon fill="white" stroke="transparent" points="-4,4 -4,-112 349.34,-112 349.34,4 -4,4"/>
<!-- settlers&#39; mortality -->
<g id="node1" class="node">
<title>settlers&#39; mortality</title>
<ellipse fill="none" stroke="black" cx="74.09" cy="-18" rx="74.19" ry="18"/>
<text text-anchor="middle" x="74.09" y="-14.3" font-family="Times,serif" font-size="14.00">settlers&#39; mortality</text>
</g>
<!-- institutions -->
<g id="node2" class="node">
<title>institutions</title>
<ellipse fill="none" stroke="black" cx="217.09" cy="-18" rx="51.19" ry="18"/>
<text text-anchor="middle" x="217.09" y="-14.3" font-family="Times,serif" font-size="14.00">institutions</text>
</g>
<!-- settlers&#39; mortality&#45;&gt;institutions -->
<g id="edge1" class="edge">
<title>settlers&#39; mortality&#45;&gt;institutions</title>
<path fill="none" stroke="black" d="M148.39,-18C150.71,-18 153.04,-18 155.36,-18"/>
<polygon fill="black" stroke="black" points="155.56,-21.5 165.56,-18 155.56,-14.5 155.56,-21.5"/>
</g>
<!-- GDP -->
<g id="node4" class="node">
<title>GDP</title>
<ellipse fill="none" stroke="black" cx="316.09" cy="-18" rx="29.5" ry="18"/>
<text text-anchor="middle" x="316.09" y="-14.3" font-family="Times,serif" font-size="14.00">GDP</text>
</g>
<!-- institutions&#45;&gt;GDP -->
<g id="edge4" class="edge">
<title>institutions&#45;&gt;GDP</title>
<path fill="none" stroke="black" d="M268.53,-18C271.18,-18 273.84,-18 276.49,-18"/>
<polygon fill="black" stroke="black" points="276.74,-21.5 286.74,-18 276.74,-14.5 276.74,-21.5"/>
</g>
<!-- tons of stuff -->
<g id="node3" class="node">
<title>tons of stuff</title>
<ellipse fill="none" stroke="black" cx="266.09" cy="-90" rx="54.69" ry="18"/>
<text text-anchor="middle" x="266.09" y="-86.3" font-family="Times,serif" font-size="14.00">tons of stuff</text>
</g>
<!-- tons of stuff&#45;&gt;institutions -->
<g id="edge3" class="edge">
<title>tons of stuff&#45;&gt;institutions</title>
<path fill="none" stroke="black" d="M254.48,-72.41C248.59,-63.99 241.3,-53.58 234.73,-44.2"/>
<polygon fill="black" stroke="black" points="237.56,-42.14 228.96,-35.96 231.83,-46.16 237.56,-42.14"/>
</g>
<!-- tons of stuff&#45;&gt;GDP -->
<g id="edge2" class="edge">
<title>tons of stuff&#45;&gt;GDP</title>
<path fill="none" stroke="black" d="M277.94,-72.41C284.13,-63.74 291.83,-52.97 298.68,-43.38"/>
<polygon fill="black" stroke="black" points="301.71,-45.16 304.67,-34.99 296.01,-41.09 301.71,-45.16"/>
</g>
</g>
</svg>
