<?xml version="1.0" encoding="UTF-8" standalone="no"?>
<!DOCTYPE svg PUBLIC "-//W3C//DTD SVG 1.1//EN"
 "http://www.w3.org/Graphics/SVG/1.1/DTD/svg11.dtd">
<!-- Generated by graphviz version 2.50.0 (0)
 -->
<!-- Pages: 1 -->
<svg width="206pt" height="116pt"
 viewBox="0.00 0.00 206.00 116.00" xmlns="http://www.w3.org/2000/svg" xmlns:xlink="http://www.w3.org/1999/xlink">
<g id="graph0" class="graph" transform="scale(1 1) rotate(0) translate(4 112)">
<polygon fill="white" stroke="transparent" points="-4,4 -4,-112 202,-112 202,4 -4,4"/>
<!-- Z -->
<g id="node1" class="node">
<title>Z</title>
<ellipse fill="none" stroke="black" cx="27" cy="-18" rx="27" ry="18"/>
<text text-anchor="middle" x="27" y="-14.3" font-family="Times,serif" font-size="14.00">Z</text>
</g>
<!-- T -->
<g id="node2" class="node">
<title>T</title>
<ellipse fill="none" stroke="black" cx="99" cy="-18" rx="27" ry="18"/>
<text text-anchor="middle" x="99" y="-14.3" font-family="Times,serif" font-size="14.00">T</text>
</g>
<!-- Z&#45;&gt;T -->
<g id="edge1" class="edge">
<title>Z&#45;&gt;T</title>
<path fill="none" stroke="black" d="M54,-18C56.61,-18 59.23,-18 61.84,-18"/>
<polygon fill="black" stroke="black" points="61.93,-21.5 71.93,-18 61.93,-14.5 61.93,-21.5"/>
</g>
<!-- Y -->
<g id="node4" class="node">
<title>Y</title>
<ellipse fill="none" stroke="black" cx="171" cy="-18" rx="27" ry="18"/>
<text text-anchor="middle" x="171" y="-14.3" font-family="Times,serif" font-size="14.00">Y</text>
</g>
<!-- T&#45;&gt;Y -->
<g id="edge4" class="edge">
<title>T&#45;&gt;Y</title>
<path fill="none" stroke="black" d="M126,-18C128.61,-18 131.23,-18 133.84,-18"/>
<polygon fill="black" stroke="black" points="133.93,-21.5 143.93,-18 133.93,-14.5 133.93,-21.5"/>
</g>
<!-- U -->
<g id="node3" class="node">
<title>U</title>
<ellipse fill="none" stroke="black" cx="135" cy="-90" rx="27" ry="18"/>
<text text-anchor="middle" x="135" y="-86.3" font-family="Times,serif" font-size="14.00">U</text>
</g>
<!-- U&#45;&gt;T -->
<g id="edge3" class="edge">
<title>U&#45;&gt;T</title>
<path fill="none" stroke="black" d="M126.65,-72.76C122.29,-64.28 116.85,-53.71 111.96,-44.2"/>
<polygon fill="black" stroke="black" points="114.99,-42.44 107.3,-35.15 108.77,-45.64 114.99,-42.44"/>
</g>
<!-- U&#45;&gt;Y -->
<g id="edge2" class="edge">
<title>U&#45;&gt;Y</title>
<path fill="none" stroke="black" d="M143.35,-72.76C147.71,-64.28 153.15,-53.71 158.04,-44.2"/>
<polygon fill="black" stroke="black" points="161.23,-45.64 162.7,-35.15 155.01,-42.44 161.23,-45.64"/>
</g>
</g>
</svg>
