<?xml version="1.0" encoding="UTF-8" standalone="no"?>
<!DOCTYPE svg PUBLIC "-//W3C//DTD SVG 1.1//EN"
 "http://www.w3.org/Graphics/SVG/1.1/DTD/svg11.dtd">
<!-- Generated by graphviz version 2.50.0 (0)
 -->
<!-- Pages: 1 -->
<svg width="299pt" height="116pt"
 viewBox="0.00 0.00 299.19 116.00" xmlns="http://www.w3.org/2000/svg" xmlns:xlink="http://www.w3.org/1999/xlink">
<g id="graph0" class="graph" transform="scale(1 1) rotate(0) translate(4 112)">
<polygon fill="white" stroke="transparent" points="-4,4 -4,-112 295.19,-112 295.19,4 -4,4"/>
<!-- reminder -->
<g id="node1" class="node">
<title>reminder</title>
<ellipse fill="none" stroke="black" cx="43.55" cy="-18" rx="43.59" ry="18"/>
<text text-anchor="middle" x="43.55" y="-14.3" font-family="Times,serif" font-size="14.00">reminder</text>
</g>
<!-- subscribe -->
<g id="node2" class="node">
<title>subscribe</title>
<ellipse fill="none" stroke="black" cx="149.55" cy="-18" rx="44.69" ry="18"/>
<text text-anchor="middle" x="149.55" y="-14.3" font-family="Times,serif" font-size="14.00">subscribe</text>
</g>
<!-- reminder&#45;&gt;subscribe -->
<g id="edge1" class="edge">
<title>reminder&#45;&gt;subscribe</title>
<path fill="none" stroke="black" d="M87.44,-18C89.74,-18 92.04,-18 94.34,-18"/>
<polygon fill="black" stroke="black" points="94.42,-21.5 104.42,-18 94.42,-14.5 94.42,-21.5"/>
</g>
<!-- revenue -->
<g id="node4" class="node">
<title>revenue</title>
<ellipse fill="none" stroke="black" cx="251.55" cy="-18" rx="39.79" ry="18"/>
<text text-anchor="middle" x="251.55" y="-14.3" font-family="Times,serif" font-size="14.00">revenue</text>
</g>
<!-- subscribe&#45;&gt;revenue -->
<g id="edge4" class="edge">
<title>subscribe&#45;&gt;revenue</title>
<path fill="none" stroke="black" d="M194.57,-18C196.86,-18 199.15,-18 201.44,-18"/>
<polygon fill="black" stroke="black" points="201.48,-21.5 211.48,-18 201.48,-14.5 201.48,-21.5"/>
</g>
<!-- income -->
<g id="node3" class="node">
<title>income</title>
<ellipse fill="none" stroke="black" cx="200.55" cy="-90" rx="37.89" ry="18"/>
<text text-anchor="middle" x="200.55" y="-86.3" font-family="Times,serif" font-size="14.00">income</text>
</g>
<!-- income&#45;&gt;subscribe -->
<g id="edge3" class="edge">
<title>income&#45;&gt;subscribe</title>
<path fill="none" stroke="black" d="M188.72,-72.76C182.44,-64.14 174.58,-53.36 167.56,-43.73"/>
<polygon fill="black" stroke="black" points="170.38,-41.65 161.66,-35.63 164.72,-45.78 170.38,-41.65"/>
</g>
<!-- income&#45;&gt;revenue -->
<g id="edge2" class="edge">
<title>income&#45;&gt;revenue</title>
<path fill="none" stroke="black" d="M212.37,-72.76C218.66,-64.14 226.51,-53.36 233.53,-43.73"/>
<polygon fill="black" stroke="black" points="236.37,-45.78 239.43,-35.63 230.71,-41.65 236.37,-45.78"/>
</g>
</g>
</svg>
