<?xml version="1.0" encoding="UTF-8" standalone="no"?>
<!DOCTYPE svg PUBLIC "-//W3C//DTD SVG 1.1//EN"
 "http://www.w3.org/Graphics/SVG/1.1/DTD/svg11.dtd">
<!-- Generated by graphviz version 2.50.0 (0)
 -->
<!-- Pages: 1 -->
<svg width="293pt" height="116pt"
 viewBox="0.00 0.00 293.24 116.00" xmlns="http://www.w3.org/2000/svg" xmlns:xlink="http://www.w3.org/1999/xlink">
<g id="graph0" class="graph" transform="scale(1 1) rotate(0) translate(4 112)">
<polygon fill="white" stroke="transparent" points="-4,4 -4,-112 289.24,-112 289.24,4 -4,4"/>
<!-- discount -->
<g id="node1" class="node">
<title>discount</title>
<ellipse fill="none" stroke="black" cx="41.6" cy="-18" rx="41.69" ry="18"/>
<text text-anchor="middle" x="41.6" y="-14.3" font-family="Times,serif" font-size="14.00">discount</text>
</g>
<!-- premium -->
<g id="node2" class="node">
<title>premium</title>
<ellipse fill="none" stroke="black" cx="144.6" cy="-18" rx="43.59" ry="18"/>
<text text-anchor="middle" x="144.6" y="-14.3" font-family="Times,serif" font-size="14.00">premium</text>
</g>
<!-- discount&#45;&gt;premium -->
<g id="edge1" class="edge">
<title>discount&#45;&gt;premium</title>
<path fill="none" stroke="black" d="M83.44,-18C85.77,-18 88.1,-18 90.43,-18"/>
<polygon fill="black" stroke="black" points="90.64,-21.5 100.64,-18 90.64,-14.5 90.64,-21.5"/>
</g>
<!-- revenue -->
<g id="node4" class="node">
<title>revenue</title>
<ellipse fill="none" stroke="black" cx="245.6" cy="-18" rx="39.79" ry="18"/>
<text text-anchor="middle" x="245.6" y="-14.3" font-family="Times,serif" font-size="14.00">revenue</text>
</g>
<!-- premium&#45;&gt;revenue -->
<g id="edge4" class="edge">
<title>premium&#45;&gt;revenue</title>
<path fill="none" stroke="black" d="M188.39,-18C190.84,-18 193.29,-18 195.74,-18"/>
<polygon fill="black" stroke="black" points="195.82,-21.5 205.82,-18 195.82,-14.5 195.82,-21.5"/>
</g>
<!-- income -->
<g id="node3" class="node">
<title>income</title>
<ellipse fill="none" stroke="black" cx="194.6" cy="-90" rx="37.89" ry="18"/>
<text text-anchor="middle" x="194.6" y="-86.3" font-family="Times,serif" font-size="14.00">income</text>
</g>
<!-- income&#45;&gt;premium -->
<g id="edge3" class="edge">
<title>income&#45;&gt;premium</title>
<path fill="none" stroke="black" d="M183,-72.76C176.9,-64.23 169.3,-53.58 162.47,-44.02"/>
<polygon fill="black" stroke="black" points="165.14,-41.74 156.48,-35.63 159.44,-45.81 165.14,-41.74"/>
</g>
<!-- income&#45;&gt;revenue -->
<g id="edge2" class="edge">
<title>income&#45;&gt;revenue</title>
<path fill="none" stroke="black" d="M206.42,-72.76C212.71,-64.14 220.56,-53.36 227.58,-43.73"/>
<polygon fill="black" stroke="black" points="230.42,-45.78 233.48,-35.63 224.76,-41.65 230.42,-45.78"/>
</g>
</g>
</svg>
